<?xml version="1.0" encoding="UTF-8" standalone="no"?>
<svg
   viewBox="0 0 32 32"
   version="1.1"
   id="svg5"
   sodipodi:docname="antenna-gray.svg"
   inkscape:version="1.3.2 (091e20e, 2023-11-25)"
   xmlns:inkscape="http://www.inkscape.org/namespaces/inkscape"
   xmlns:sodipodi="http://sodipodi.sourceforge.net/DTD/sodipodi-0.dtd"
   xmlns="http://www.w3.org/2000/svg"
   xmlns:svg="http://www.w3.org/2000/svg">
  <defs
     id="defs5" />
  <sodipodi:namedview
     id="namedview5"
     pagecolor="#ffffff"
     bordercolor="#000000"
     borderopacity="0.25"
     inkscape:showpageshadow="2"
     inkscape:pageopacity="0.0"
     inkscape:pagecheckerboard="0"
     inkscape:deskcolor="#d1d1d1"
     inkscape:zoom="7.375"
     inkscape:cx="15.932203"
     inkscape:cy="15.932203"
     inkscape:window-width="1600"
     inkscape:window-height="954"
     inkscape:window-x="0"
     inkscape:window-y="0"
     inkscape:window-maximized="0"
     inkscape:current-layer="svg5" />
  <path
     d="m 20,12.61 a 4,4 0 1 0 -5,3.86 v 12.14 a 1,1 0 0 0 2,0 V 16.47 a 4,4 0 0 0 3,-3.86 z m -6,0 a 2,2 0 1 1 2,2 2,2 0 0 1 -2,-2 z"
     id="path1"
     style="fill:#b3b3b3" />
  <path
     d="M 12.91,17.76 12.57,17.54 A 6,6 0 0 1 10,12.61 6,6 0 0 1 11.8,8.32 6.53,6.53 0 0 1 12.91,7.47 1,1 0 0 0 11.91,5.75 8,8 0 0 0 8,12.61 a 8,8 0 0 0 3.43,6.57 l 0.44,0.29 a 1.1,1.1 0 0 0 0.52,0.14 1,1 0 0 0 0.52,-1.85 z"
     id="path2"
     style="fill:#b3b3b3;fill-opacity:0.502994" />
  <path
     d="M 24,12.61 A 7.94,7.94 0 0 0 21.71,7 8.09,8.09 0 0 0 20.12,5.74 a 1,1 0 0 0 -1,1.72 6.07,6.07 0 0 1 1.2,0.94 6,6 0 0 1 -0.86,9.13 3.87,3.87 0 0 1 -0.34,0.21 1,1 0 0 0 0.52,1.86 1.06,1.06 0 0 0 0.51,-0.14 L 20.6,19.17 A 8,8 0 0 0 24,12.61 Z"
     id="path3"
     style="fill:#b3b3b3;fill-opacity:0.502994" />
  <path
     d="m 10.55,21 a 10,10 0 0 1 0,-16.76 1.0040418,1.0040418 0 0 0 -1.1,-1.68 12,12 0 0 0 0,20.12 1.0040418,1.0040418 0 0 0 1.1,-1.68 z"
     id="path4"
     style="fill:#b3b3b3;fill-opacity:0.502994" />
  <path
     d="m 26.69,7.16 a 12.09,12.09 0 0 0 -4.14,-4.61 1.0040418,1.0040418 0 0 0 -1.1,1.68 10,10 0 0 1 0,16.76 1.0040418,1.0040418 0 0 0 1.1,1.68 12,12 0 0 0 4.14,-15.51 z"
     id="path5"
     style="fill:#b3b3b3;fill-opacity:0.502994" />
</svg>
