<?xml version="1.0" encoding="UTF-8" standalone="no"?>
<svg
   viewBox="0 0 32 32"
   version="1.1"
   id="svg5"
   sodipodi:docname="antenna-green.svg"
   inkscape:version="1.3.2 (091e20e, 2023-11-25)"
   xmlns:inkscape="http://www.inkscape.org/namespaces/inkscape"
   xmlns:sodipodi="http://sodipodi.sourceforge.net/DTD/sodipodi-0.dtd"
   xmlns="http://www.w3.org/2000/svg"
   xmlns:svg="http://www.w3.org/2000/svg">
  <defs
     id="defs5" />
  <sodipodi:namedview
     id="namedview5"
     pagecolor="#ffffff"
     bordercolor="#000000"
     borderopacity="0.25"
     inkscape:showpageshadow="2"
     inkscape:pageopacity="0.0"
     inkscape:pagecheckerboard="0"
     inkscape:deskcolor="#d1d1d1"
     inkscape:zoom="7.375"
     inkscape:cx="15.932203"
     inkscape:cy="15.932203"
     inkscape:window-width="1600"
     inkscape:window-height="954"
     inkscape:window-x="0"
     inkscape:window-y="0"
     inkscape:window-maximized="0"
     inkscape:current-layer="svg5" />
  <g
     id="cellular_data"
     data-name="cellular data"
     style="fill:#009600;fill-opacity:1">
    <path
       d="M20,12.61a4,4,0,1,0-5,3.86V28.61a1,1,0,0,0,2,0V16.47A4,4,0,0,0,20,12.61Zm-6,0a2,2,0,1,1,2,2A2,2,0,0,1,14,12.61Z"
       id="path1"
       style="fill:#009600;fill-opacity:1" />
    <path
       d="M12.91,17.76l-.34-.22A6,6,0,0,1,10,12.61a6,6,0,0,1,1.8-4.29,6.53,6.53,0,0,1,1.11-.85,1,1,0,0,0-1-1.72A8,8,0,0,0,8,12.61a8,8,0,0,0,3.43,6.57l.44.29a1.1,1.1,0,0,0,.52.14,1,1,0,0,0,.52-1.85Z"
       id="path2"
       style="fill:#009600;fill-opacity:1" />
    <path
       d="M24,12.61A7.94,7.94,0,0,0,21.71,7a8.09,8.09,0,0,0-1.59-1.26,1,1,0,0,0-1,1.72,6.07,6.07,0,0,1,1.2.94,6,6,0,0,1-.86,9.13,3.87,3.87,0,0,1-.34.21,1,1,0,0,0,.52,1.86,1.06,1.06,0,0,0,.51-.14l.45-.29A8,8,0,0,0,24,12.61Z"
       id="path3"
       style="fill:#009600;fill-opacity:1" />
    <path
       d="M10.55,21a10,10,0,0,1,0-16.76,1,1,0,0,0-1.1-1.68,12,12,0,0,0,0,20.12A1,1,0,0,0,10.55,21Z"
       id="path4"
       style="fill:#009600;fill-opacity:1" />
    <path
       d="M26.69,7.16a12.09,12.09,0,0,0-4.14-4.61,1,1,0,0,0-1.1,1.68,10,10,0,0,1,0,16.76,1,1,0,0,0,1.1,1.68A12,12,0,0,0,26.69,7.16Z"
       id="path5"
       style="fill:#009600;fill-opacity:1" />
  </g>
</svg>
