<?xml version="1.0" encoding="UTF-8" standalone="no"?>
<svg
   id="Layer_1"
   data-name="Layer 1"
   viewBox="0 0 120 120"
   version="1.1"
   sodipodi:docname="mobile-gray.svg"
   inkscape:version="1.3.2 (091e20e, 2023-11-25)"
   xmlns:inkscape="http://www.inkscape.org/namespaces/inkscape"
   xmlns:sodipodi="http://sodipodi.sourceforge.net/DTD/sodipodi-0.dtd"
   xmlns="http://www.w3.org/2000/svg"
   xmlns:svg="http://www.w3.org/2000/svg"
   xmlns:rdf="http://www.w3.org/1999/02/22-rdf-syntax-ns#"
   xmlns:cc="http://creativecommons.org/ns#"
   xmlns:dc="http://purl.org/dc/elements/1.1/">
  <defs
     id="defs1" />
  <sodipodi:namedview
     id="namedview1"
     pagecolor="#ffffff"
     bordercolor="#000000"
     borderopacity="0.25"
     inkscape:showpageshadow="2"
     inkscape:pageopacity="0.0"
     inkscape:pagecheckerboard="0"
     inkscape:deskcolor="#d1d1d1"
     inkscape:zoom="1.9666667"
     inkscape:cx="59.745762"
     inkscape:cy="60.254236"
     inkscape:window-width="1600"
     inkscape:window-height="982"
     inkscape:window-x="0"
     inkscape:window-y="0"
     inkscape:window-maximized="0"
     inkscape:current-layer="Layer_1" />
  <title
     id="title1">_</title>
  <g
     id="g1"
     style="fill:#b3b3b3;fill-opacity:0.49500999">
    <path
       d="M85.81,120H34.19a8.39,8.39,0,0,1-8.38-8.39V8.39A8.39,8.39,0,0,1,34.19,0H85.81a8.39,8.39,0,0,1,8.38,8.39V111.61A8.39,8.39,0,0,1,85.81,120ZM34.19,3.87a4.52,4.52,0,0,0-4.51,4.52V111.61a4.52,4.52,0,0,0,4.51,4.52H85.81a4.52,4.52,0,0,0,4.51-4.52V8.39a4.52,4.52,0,0,0-4.51-4.52Z"
       id="path1"
       style="fill:#b3b3b3;fill-opacity:0.49500999" />
    <polygon
       points="73.7 10.32 46.3 10.32 39.28 3.3 42.01 0.57 47.9 6.45 72.1 6.45 77.99 0.57 80.72 3.3 73.7 10.32"
       id="polygon1"
       style="fill:#b3b3b3;fill-opacity:0.49500999" />
    <rect
       x="47.1"
       y="103.23"
       width="25.81"
       height="3.87"
       id="rect1"
       style="fill:#b3b3b3;fill-opacity:0.49500999" />
  </g>
  <metadata
     id="metadata1">
    <rdf:RDF>
      <cc:Work
         rdf:about="">
        <dc:title>_</dc:title>
      </cc:Work>
    </rdf:RDF>
  </metadata>
</svg>
